<svg id="Ebene_1" data-name="Ebene 1" xmlns="http://www.w3.org/2000/svg" xmlns:xlink="http://www.w3.org/1999/xlink" viewBox="0 0 800 800"><defs><style>.cls-1{fill:none;}.cls-2{fill:#ebebeb;}.cls-3{fill:#656c6a;}.cls-4{clip-path:url(#clip-path);}.cls-5{fill:#323232;isolation:isolate;opacity:0.15;}.cls-6{fill:url(#Unbenannter_Verlauf_192);}.cls-7{fill:#42771d;}.cls-8{fill:#fff;fill-opacity:0.3;}</style><clipPath id="clip-path"><path class="cls-1" d="M182,160H618a22,22,0,0,1,22,22V618a22,22,0,0,1-22,22H350A190,190,0,0,1,160,450V182A22,22,0,0,1,182,160Z"/></clipPath><linearGradient id="Unbenannter_Verlauf_192" x1="205.09" y1="3682.82" x2="697.54" y2="3398.5" gradientTransform="matrix(1, 0, 0, -1, 0, 4058)" gradientUnits="userSpaceOnUse"><stop offset="0" stop-color="#99dc2e"/><stop offset="1" stop-color="#469900"/></linearGradient></defs><path class="cls-2" d="M350,647A197.55,197.55,0,0,1,153,450V182a29,29,0,0,1,29-29H618a29,29,0,0,1,29,29V618a29,29,0,0,1-29,29Z"/><path class="cls-3" d="M618,160a22.06,22.06,0,0,1,22,22V618a22.06,22.06,0,0,1-22,22H350c-104.5,0-190-85.5-190-190V182a22.06,22.06,0,0,1,22-22H618m0-14H182a36,36,0,0,0-36,36V450a201.54,201.54,0,0,0,16.11,79.25A205.77,205.77,0,0,0,270.75,637.89,201.54,201.54,0,0,0,350,654H618a36,36,0,0,0,36-36V182a36,36,0,0,0-36-36Z"/><g class="cls-4"><path class="cls-5" d="M440.39,514.29q-23.7-12.48-73.21-24.17t-62.33-22.47q-10.08-8.49-10.09-20.39,0-13.06,10.78-20.86,16.71-12.13,46.28-12.14,28.65,0,43,11.34t18.68,37.24l67.83-3q-1.6-46.29-33.57-74t-95.22-27.72q-38.73,0-66.12,11.68t-41.93,34a86.35,86.35,0,0,0-14.55,48q0,39.89,30.93,67.61,22,19.69,76.54,33.22,42.39,10.55,54.31,14.67,17.42,6.18,24.41,14.55a30.59,30.59,0,0,1,7,20.27q0,18.57-16.61,32.43a51.52,51.52,0,0,1-14.1,7.9h89.79A97.33,97.33,0,0,0,490.93,602q0-31.86-13.42-53.52T440.39,514.29Z"/><path class="cls-5" d="M307.94,632.88q-18.21-15.58-24.18-48.82L228,589.47a176,176,0,0,0,25.34,32.95,173.4,173.4,0,0,0,69.71,19.49A59.22,59.22,0,0,1,307.94,632.88Z"/><path class="cls-5" d="M596.46,642.49v-131h43.65V457H596.46V369.64L531,408.06V457H498.23v54.57H531v131Z"/><path class="cls-6" d="M500.67,647.49l-1.47-2.35c-.24-.39-6-9.76-6-26.25v-146H460.49V430.12h32.74V378.71l53.66-31.49v82.9h43.65v42.74H546.89V609.75c0,4.06,2.36,8.17,6.31,11a24,24,0,0,0,14.32,4.3,60.39,60.39,0,0,0,15.21-2.45l5.64-1.52,2.89,26.4Zm-166.16,0a179.82,179.82,0,0,1-147.74-77.57l-4.84-7,53.35-5.19,1.05,4.17c4.7,18.68,12.81,33.06,24.11,42.73,13.19,11.28,31,17,53,17,23.18,0,41.06-5.12,53.16-15.24,12.46-10.37,18.75-22.8,18.71-36.93,0-9.35-2.82-17.45-8.37-24.1-5.38-6.45-14.23-11.8-27-16.36-8.2-2.83-26.13-7.68-54.78-14.8-35.25-8.74-60.15-19.47-74-31.88-19.5-17.48-29-38.16-29-63.21,0-16.08,4.45-30.73,13.6-44.78s22-24.43,39.29-31.82,38.88-11.21,63.79-11.21c40.51,0,71.24,8.85,91.35,26.28,17.59,15.25,27.61,34.4,30.65,58.53l.67,5.38L374.71,424l-1-3.91c-3.69-14.1-10.05-24.82-18.9-31.84-10.58-8.37-26.26-12.61-46.63-12.61-20.89,0-37.64,4.46-49.76,13.26a30.57,30.57,0,0,0-13.22,25.65c0,9.59,4.22,18.21,12.2,24.92,3.43,2.88,13.87,11.65,64.78,23.69,32.3,7.61,56.46,15.56,71.82,23.65a88.84,88.84,0,0,1,34.85,32c8.31,13.42,12.52,30.38,12.52,50.4,0,18.28-4.94,34.93-15.11,50.91a86.27,86.27,0,0,1-26.63,26.58l-1.23.8Z"/><path class="cls-7" d="M308.82,336.3c39.27,0,68.9,8.44,88.07,25.06,16.57,14.37,26.1,32.55,29,55.37l-47.34,2.07c-4-15.18-10.89-26.76-20.64-34.48-11.48-9.1-28.21-13.7-49.73-13.7-22,0-39.7,4.78-52.7,14.21-10,7.23-15.28,17.5-15.28,29.7,0,11.12,4.84,21.06,14,28.74C260.5,448.61,274.34,457,321,468c31.93,7.52,55.69,15.33,70.64,23.2a84,84,0,0,1,32.93,30.22c7.81,12.62,11.77,28.7,11.77,47.77,0,17.28-4.68,33.06-14.33,48.22a81.86,81.86,0,0,1-25.12,25.07H334.51a174.38,174.38,0,0,1-143.63-75.41l40.6-4c5,19.74,13.6,34.94,25.71,45.31,14.12,12.08,33,18.2,56.25,18.2,24.38,0,43.35-5.52,56.37-16.4,13.63-11.36,20.54-25.09,20.5-40.79,0-10.53-3.2-19.71-9.53-27.28-6-7.17-15.51-13-29.21-17.87-8.36-2.89-26.43-7.78-55.24-14.94-34.45-8.55-58.64-18.89-71.89-30.76-18.38-16.48-27.3-35.93-27.3-59.48,0-15.09,4.19-28.85,12.79-42.05s20.69-23,37.06-29.95c16.8-7.17,37.6-10.81,61.83-10.81M541.89,356v79.17h43.65v32.74H541.89V609.75c0,5.93,3.35,11.45,8.39,15.07a28.94,28.94,0,0,0,17.24,5.24A64.92,64.92,0,0,0,584,627.44l1.64,15H503.45s-5.22-8.36-5.22-23.6v-151H465.49V435.12h32.74V381.58L541.89,356M308.82,326.3c-25.59,0-47.71,3.91-65.75,11.61-18.25,7.79-31.84,18.81-41.52,33.69S187.14,402,187.14,419.11c0,26.55,10,48.45,30.63,66.93,14.48,13,40.1,24.07,76.15,33,28.06,7,46.35,11.91,54.35,14.67,11.92,4.24,20,9.09,24.83,14.83s7.21,12.64,7.21,20.88c0,12.78-5.49,23.6-16.9,33.11-11.19,9.35-28,14.08-50,14.08-20.76,0-37.49-5.31-49.75-15.8-10.49-9-18.07-22.49-22.51-40.15l-2.1-8.34-8.56.83-40.61,4L173,558.77l9.69,14a186.53,186.53,0,0,0,64.79,57.9,184.62,184.62,0,0,0,87.06,21.82h65.33l2.48-1.6a91.31,91.31,0,0,0,28.13-28.1c10.7-16.8,15.89-34.33,15.89-53.59,0-21-4.46-38.81-13.27-53a93.69,93.69,0,0,0-36.78-33.81c-15.72-8.28-40.29-16.38-73-24.09-33.48-7.91-54-15.32-62.71-22.65-6.92-5.81-10.42-12.9-10.42-21.09,0-9,3.75-16.25,11.14-21.6,11.27-8.17,27-12.31,46.84-12.31,19.21,0,33.86,3.88,43.52,11.54,8,6.32,13.77,16.14,17.18,29.18l2,7.81,8.07-.36,47.33-2.07,10.84-.47-1.35-10.77c-3.2-25.4-13.78-45.58-32.34-61.67-21-18.25-52.88-27.51-94.62-27.51Zm243.07,12.18-15.07,8.85L493.17,373l-4.94,2.9v49.27H455.49v52.74h32.74v141c0,17.6,6,27.79,6.73,28.9l2.94,4.7h98.94l-1.21-11.09-1.65-15-1.27-11.6-11.28,3a55.77,55.77,0,0,1-13.91,2.27,18.93,18.93,0,0,1-11.41-3.36c-2.6-1.87-4.22-4.54-4.22-7V477.86h43.65V425.12H551.89V338.48Z"/><path class="cls-8" d="M391.65,491.21C376.7,483.34,352.94,475.53,321,468c-46.66-11-60.49-19.4-66.85-24.74-9.14-7.68-14-17.62-14-28.74,0-12.2,5.28-22.47,15.28-29.7,13-9.43,30.73-14.21,52.7-14.21,21.52,0,38.25,4.6,49.73,13.7,9.75,7.72,16.67,19.3,20.64,34.48l47.34-2.07c-2.87-22.82-12.4-41-29-55.37-19.17-16.62-48.8-25.06-88.07-25.06-24.23,0-45,3.64-61.83,10.81-16.37,7-28.49,16.78-37.06,29.95s-12.79,27-12.79,42.05c0,23.55,8.92,43,27.3,59.48,13.25,11.87,37.44,22.21,71.89,30.76,28.81,7.16,46.88,12,55.24,14.94a98,98,0,0,1,14.54,6.51A431.6,431.6,0,0,0,422.81,519,83.58,83.58,0,0,0,391.65,491.21Z"/><path class="cls-8" d="M498.23,489.35c28.61-15.09,53.53-33.44,73.79-54.23H541.89V356l-43.66,25.63v53.54H465.49v32.74h32.74v21.49Z"/></g></svg>